<?xml version="1.0" encoding="UTF-8" standalone="no"?>
<svg
   xmlns:dc="http://purl.org/dc/elements/1.1/"
   xmlns:cc="http://creativecommons.org/ns#"
   xmlns:rdf="http://www.w3.org/1999/02/22-rdf-syntax-ns#"
   xmlns:svg="http://www.w3.org/2000/svg"
   xmlns="http://www.w3.org/2000/svg"
   xmlns:xlink="http://www.w3.org/1999/xlink"
   xmlns:sodipodi="http://sodipodi.sourceforge.net/DTD/sodipodi-0.dtd"
   xmlns:inkscape="http://www.inkscape.org/namespaces/inkscape"
   height="181.5"
   viewBox="0 0 176.5 181.5"
   width="176.5"
   version="1.1"
   id="svg33"
   sodipodi:docname="xmpp.svg"
   inkscape:version="0.92.2 5c3e80d, 2017-08-06">
  <metadata
     id="metadata39">
    <rdf:RDF>
      <cc:Work
         rdf:about="">
        <dc:format>image/svg+xml</dc:format>
        <dc:type
           rdf:resource="http://purl.org/dc/dcmitype/StillImage" />
      </cc:Work>
    </rdf:RDF>
  </metadata>
  <defs
     id="defs37">
    <linearGradient
       inkscape:collect="always"
       xlink:href="#a"
       id="linearGradient3774"
       gradientUnits="userSpaceOnUse"
       y1="125.86"
       x2="0" />
    <linearGradient
       inkscape:collect="always"
       xlink:href="#a"
       id="linearGradient3776"
       gradientUnits="userSpaceOnUse"
       y1="125.86"
       x2="0" />
  </defs>
  <sodipodi:namedview
     pagecolor="#ffffff"
     bordercolor="#666666"
     borderopacity="1"
     objecttolerance="10"
     gridtolerance="10"
     guidetolerance="10"
     inkscape:pageopacity="0"
     inkscape:pageshadow="2"
     inkscape:window-width="1274"
     inkscape:window-height="997"
     id="namedview35"
     showgrid="false"
     inkscape:zoom="1.3002755"
     inkscape:cx="167.48582"
     inkscape:cy="121.51271"
     inkscape:window-x="1280"
     inkscape:window-y="55"
     inkscape:window-maximized="0"
     inkscape:current-layer="svg33" />
  <linearGradient
     id="a"
     gradientUnits="userSpaceOnUse"
     x2="0"
     y1="125.86">
    <stop
       stop-color="#1b3967"
       offset="0.011"
       id="stop2" />
    <stop
       stop-color="#13b5ea"
       offset="0.467"
       id="stop4" />
    <stop
       stop-color="#002b5c"
       offset="0.9945"
       id="stop6" />
  </linearGradient>
  <g
     id="g3734"
     transform="translate(11.377118,-14.692203)"
     inkscape:export-xdpi="133.07001"
     inkscape:export-ydpi="133.07001">
    <path
       inkscape:connector-curvature="0"
       id="path21"
       d="m 196.076,78.267203 -13.388,-14.65 h 11.643 l 9.127,10.268 9.129,-10.268 h 11.643 l -13.387,14.646 14.401,14.728 h -12.09 l -9.697,-10.67 -9.693,10.67 h -12.092 l 14.404,-14.73 z" />
    <path
       inkscape:connector-curvature="0"
       id="path23"
       d="m 228.596,63.617203 h 13.836 l 10.183,18.905 10.183,-18.905 h 13.832 v 29.374 h -8.762 v -21.096 h -0.08 l -11.807,21.096 h -6.733 l -11.807,-21.096 h -0.082 v 21.096 h -8.764 v -29.368 z" />
    <path
       inkscape:connector-curvature="0"
       id="path25"
       d="m 282.75,63.617203 h 24.546 c 8.559,0 10.628,4.302 10.628,10.063 v 2.516 c 0,4.381 -1.908,9.41 -8.275,9.41 h -17.894 v 7.385 h -9.005 v -29.378 z m 9,14.69 h 13.997 c 2.109,0 2.924,-1.377 2.924,-3.123 v -1.135 c 0,-1.99 -0.976,-3.127 -3.694,-3.127 H 291.75 v 7.38 z" />
    <path
       inkscape:connector-curvature="0"
       id="path27"
       d="m 322.815,63.617203 h 24.546 c 8.559,0 10.628,4.302 10.628,10.063 v 2.516 c 0,4.381 -1.908,9.41 -8.275,9.41 H 331.82 v 7.385 h -9.005 v -29.378 z m 9,14.69 h 13.997 c 2.109,0 2.924,-1.377 2.924,-3.123 v -1.135 c 0,-1.99 -0.976,-3.127 -3.694,-3.127 h -13.227 v 7.38 z" />
  </g>
  <g
     id="g3792"
     inkscape:export-xdpi="133.07001"
     inkscape:export-ydpi="133.07001">
    <path
       id="path9"
       d="m 136.29,14.189 c 0.077,1.313 -1.786,0.968 -1.786,2.293 0,38.551 -44.72,96.831 -89.847,108.19 v 1.182 c 59.957,-5.51 126.73,-66.8 128.24,-125.85 l -36.6,14.189 z"
       style="fill:url(#linearGradient3774)"
       inkscape:connector-curvature="0" />
    <path
       id="path11"
       d="m 120.23,17.96 c 0.077,1.313 0.121,2.633 0.121,3.958 0,38.551 -30.7,90.497 -75.827,101.86 v 1.637 c 59.065,-3.823 105.81,-63.023 105.81,-109.2 0,-2.375 -0.125,-4.729 -0.371,-7.056 l -29.73,8.796 z"
       inkscape:connector-curvature="0"
       style="fill:#e96d1f" />
    <path
       id="path13"
       d="m 150.34,8.76 -7.833,2.625 c 0.041,0.963 0.191,2.203 0.191,3.173 0,41.219 -37.272,98.205 -87.274,107.12 -3.243,1.089 -7.538,2.077 -10.93,2.932 v 1.639 c 68.344,-8.66 111.18,-71.719 105.84,-117.49 z"
       inkscape:connector-curvature="0"
       style="fill:#d9541e" />
    <path
       id="path15"
       d="m 36.599,14.189 c -0.077,1.313 1.787,0.968 1.787,2.293 0,38.551 46.558,97.366 91.688,108.73 v 1.639 C 70.121,121.331 1.514,59.051 0.004,0.001 L 36.603,14.19 Z"
       style="fill:url(#linearGradient3776)"
       inkscape:connector-curvature="0" />
    <path
       id="path17"
       d="m 54.731,18.932 c -0.076,1.313 -0.12,2.63 -0.12,3.957 0,38.551 30.699,90.497 75.827,101.86 v 1.639 c -59.044,-2.79 -105.81,-63.024 -105.81,-109.2 0,-2.375 0.128,-4.729 0.371,-7.056 l 29.73,8.796 z"
       inkscape:connector-curvature="0"
       style="fill:#a0ce67" />
    <path
       id="path19"
       d="m 24.713,9.583 7.617,2.722 c -0.041,0.962 -0.066,2.254 -0.066,3.225 0,41.219 37.271,98.204 87.272,107.12 3.245,1.088 7.538,2.077 10.932,2.931 v 1.638 C 65.214,121.659 19.368,55.353 24.708,9.579 Z"
       inkscape:connector-curvature="0"
       style="fill:#439639" />
  </g>
  <a
     target="_top"
     xlink:href="http://xmpp.org/"
     id="a31">
    <rect
       style="opacity:0"
       x="0"
       y="0"
       width="176.5"
       height="181.5"
       id="rect29" />
  </a>
</svg>
